<svg width="164" height="71" viewBox="0 0 164 71" fill="none" xmlns="http://www.w3.org/2000/svg">
<path d="M3.772 26.7639H1.656V10.2959H3.772L9.499 20.3239H9.591L15.318 10.2959H17.434V26.7639H15.318V16.9889L15.41 14.2289H15.318L10.166 23.2679H8.924L3.772 14.2289H3.68L3.772 16.9889V26.7639ZM19.7358 21.1289C19.7358 19.3962 20.2801 17.9626 21.3688 16.8279C22.4728 15.6932 23.8605 15.1259 25.5318 15.1259C27.2031 15.1259 28.5831 15.6932 29.6718 16.8279C30.7758 17.9626 31.3278 19.3962 31.3278 21.1289C31.3278 22.8769 30.7758 24.3106 29.6718 25.4299C28.5831 26.5646 27.2031 27.1319 25.5318 27.1319C23.8605 27.1319 22.4728 26.5646 21.3688 25.4299C20.2801 24.2952 19.7358 22.8616 19.7358 21.1289ZM21.8518 21.1289C21.8518 22.3402 22.2045 23.3216 22.9098 24.0729C23.6151 24.8242 24.4891 25.1999 25.5318 25.1999C26.5745 25.1999 27.4485 24.8242 28.1538 24.0729C28.8591 23.3216 29.2118 22.3402 29.2118 21.1289C29.2118 19.9329 28.8591 18.9592 28.1538 18.2079C27.4331 17.4412 26.5591 17.0579 25.5318 17.0579C24.5045 17.0579 23.6305 17.4412 22.9098 18.2079C22.2045 18.9592 21.8518 19.9329 21.8518 21.1289ZM33.0253 15.4939H35.0493V17.0579H35.1413C35.4633 16.5059 35.954 16.0459 36.6133 15.6779C37.288 15.3099 37.9856 15.1259 38.7063 15.1259C40.0863 15.1259 41.1443 15.5246 41.8803 16.3219C42.6316 17.1039 43.0073 18.2232 43.0073 19.6799V26.7639H40.8913V19.8179C40.8453 17.9779 39.9176 17.0579 38.1083 17.0579C37.265 17.0579 36.5596 17.4029 35.9923 18.0929C35.425 18.7676 35.1413 19.5802 35.1413 20.5309V26.7639H33.0253V15.4939ZM56.0648 25.1999C57.0768 25.1999 57.9278 24.8166 58.6178 24.0499C59.3078 23.2986 59.6528 22.3249 59.6528 21.1289C59.6528 19.9482 59.3078 18.9746 58.6178 18.2079C57.9278 17.4412 57.0768 17.0579 56.0648 17.0579C55.0375 17.0579 54.1788 17.4412 53.4888 18.2079C52.8142 18.9746 52.4768 19.9482 52.4768 21.1289C52.4768 22.3249 52.8142 23.3062 53.4888 24.0729C54.1788 24.8242 55.0375 25.1999 56.0648 25.1999ZM56.4098 27.1319C55.5818 27.1319 54.8228 26.9556 54.1328 26.6029C53.4582 26.2502 52.9368 25.7826 52.5688 25.1999H52.4768L52.5688 26.7639V31.7319H50.4528V15.4939H52.4768V17.0579H52.5688C52.9368 16.4752 53.4582 16.0076 54.1328 15.6549C54.8228 15.3022 55.5818 15.1259 56.4098 15.1259C57.8972 15.1259 59.1545 15.7086 60.1818 16.8739C61.2398 18.0546 61.7688 19.4729 61.7688 21.1289C61.7688 22.8002 61.2398 24.2186 60.1818 25.3839C59.1545 26.5492 57.8972 27.1319 56.4098 27.1319ZM68.7669 27.1319C67.1109 27.1319 65.7463 26.5646 64.6729 25.4299C63.5996 24.2952 63.0629 22.8616 63.0629 21.1289C63.0629 19.4116 63.5843 17.9856 64.6269 16.8509C65.6696 15.7009 67.0036 15.1259 68.6289 15.1259C70.3003 15.1259 71.6266 15.6702 72.6079 16.7589C73.6046 17.8322 74.1029 19.3426 74.1029 21.2899L74.0799 21.5199H65.2249C65.2556 22.6239 65.6236 23.5132 66.3289 24.1879C67.0343 24.8626 67.8776 25.1999 68.8589 25.1999C70.2083 25.1999 71.2663 24.5252 72.0329 23.1759L73.9189 24.0959C73.4129 25.0466 72.7076 25.7902 71.8029 26.3269C70.9136 26.8636 69.9016 27.1319 68.7669 27.1319ZM65.3859 19.7719H71.8489C71.7876 18.9899 71.4656 18.3459 70.8829 17.8399C70.3156 17.3186 69.5489 17.0579 68.5829 17.0579C67.7856 17.0579 67.0956 17.3032 66.5129 17.7939C65.9456 18.2846 65.5699 18.9439 65.3859 19.7719ZM80.1631 26.9479C79.2431 26.9479 78.4764 26.6642 77.8631 26.0969C77.2651 25.5296 76.9584 24.7399 76.9431 23.7279V17.4259H74.9651V15.4939H76.9431V12.0439H79.0591V15.4939H81.8191V17.4259H79.0591V23.0379C79.0591 23.7892 79.2048 24.3029 79.4961 24.5789C79.7874 24.8396 80.1171 24.9699 80.4851 24.9699C80.6538 24.9699 80.8148 24.9546 80.9681 24.9239C81.1368 24.8779 81.2901 24.8242 81.4281 24.7629L82.0951 26.6489C81.5431 26.8482 80.8991 26.9479 80.1631 26.9479ZM86.6813 11.6069C86.6813 12.0209 86.5356 12.3736 86.2443 12.6649C85.9529 12.9562 85.6003 13.1019 85.1863 13.1019C84.7723 13.1019 84.4196 12.9562 84.1283 12.6649C83.8369 12.3736 83.6913 12.0209 83.6913 11.6069C83.6913 11.1929 83.8369 10.8402 84.1283 10.5489C84.4196 10.2576 84.7723 10.1119 85.1863 10.1119C85.6003 10.1119 85.9529 10.2576 86.2443 10.5489C86.5356 10.8402 86.6813 11.1929 86.6813 11.6069ZM86.2443 15.4939V26.7639H84.1283V15.4939H86.2443ZM93.3477 26.9479C92.4277 26.9479 91.661 26.6642 91.0477 26.0969C90.4497 25.5296 90.143 24.7399 90.1277 23.7279V17.4259H88.1497V15.4939H90.1277V12.0439H92.2437V15.4939H95.0037V17.4259H92.2437V23.0379C92.2437 23.7892 92.3893 24.3029 92.6807 24.5789C92.972 24.8396 93.3017 24.9699 93.6697 24.9699C93.8383 24.9699 93.9993 24.9546 94.1527 24.9239C94.3213 24.8779 94.4747 24.8242 94.6127 24.7629L95.2797 26.6489C94.7277 26.8482 94.0837 26.9479 93.3477 26.9479Z" fill="#599EE4"/>
<path d="M10.716 70.5799C9.39867 70.5799 8.22067 70.4026 7.182 70.0479C6.16867 69.7186 5.282 69.2752 4.522 68.7179C3.762 68.1859 3.12867 67.5906 2.622 66.9319C2.11533 66.2732 1.748 65.6146 1.52 64.9559L6.27 63.0559C6.62467 64.0439 7.20733 64.8039 8.018 65.3359C8.82867 65.8932 9.728 66.1719 10.716 66.1719C12.2867 66.1719 13.528 65.6779 14.44 64.6899C15.352 63.7272 15.808 62.3719 15.808 60.6239V59.3319H15.504C14.9213 60.1426 14.1487 60.7886 13.186 61.2699C12.2487 61.7259 11.134 61.9539 9.842 61.9539C8.72733 61.9539 7.638 61.7259 6.574 61.2699C5.53533 60.8139 4.61067 60.1679 3.8 59.3319C2.98933 58.4706 2.33067 57.4446 1.824 56.2539C1.31733 55.0632 1.064 53.7332 1.064 52.2639C1.064 50.7946 1.31733 49.4646 1.824 48.2739C2.33067 47.0579 2.98933 46.0319 3.8 45.1959C4.61067 44.3346 5.53533 43.6759 6.574 43.2199C7.638 42.7639 8.72733 42.5359 9.842 42.5359C11.134 42.5359 12.2487 42.7766 13.186 43.2579C14.1487 43.7139 14.9213 44.3472 15.504 45.1579H15.808V43.1439H20.558V60.4339C20.558 62.0046 20.3173 63.4106 19.836 64.6519C19.3547 65.9186 18.6833 66.9826 17.822 67.8439C16.9607 68.7306 15.922 69.4019 14.706 69.8579C13.5153 70.3392 12.1853 70.5799 10.716 70.5799ZM10.906 57.4699C11.514 57.4699 12.1093 57.3559 12.692 57.1279C13.3 56.8999 13.832 56.5706 14.288 56.1399C14.744 55.6839 15.1113 55.1392 15.39 54.5059C15.6687 53.8472 15.808 53.0999 15.808 52.2639C15.808 51.4279 15.6687 50.6806 15.39 50.0219C15.1113 49.3632 14.744 48.8186 14.288 48.3879C13.832 47.9319 13.3 47.5899 12.692 47.3619C12.1093 47.1339 11.514 47.0199 10.906 47.0199C10.298 47.0199 9.70267 47.1339 9.12 47.3619C8.53733 47.5899 8.018 47.9319 7.562 48.3879C7.106 48.8439 6.73867 49.4012 6.46 50.0599C6.18133 50.6932 6.042 51.4279 6.042 52.2639C6.042 53.0999 6.18133 53.8472 6.46 54.5059C6.73867 55.1392 7.106 55.6839 7.562 56.1399C8.018 56.5706 8.53733 56.8999 9.12 57.1279C9.70267 57.3559 10.298 57.4699 10.906 57.4699ZM36.0923 59.7879H35.7883C35.2056 60.4972 34.4963 61.1052 33.6603 61.6119C32.8496 62.1186 31.7983 62.3719 30.5063 62.3719C29.5436 62.3719 28.6316 62.2072 27.7703 61.8779C26.9343 61.5739 26.1996 61.1432 25.5663 60.5859C24.9329 60.0286 24.4389 59.3572 24.0843 58.5719C23.7296 57.7866 23.5523 56.9252 23.5523 55.9879C23.5523 55.0252 23.7423 54.1639 24.1223 53.4039C24.5023 52.6186 25.0343 51.9472 25.7183 51.3899C26.4023 50.8326 27.2003 50.4146 28.1123 50.1359C29.0496 49.8319 30.0629 49.6799 31.1523 49.6799C32.3683 49.6799 33.3689 49.7812 34.1543 49.9839C34.9396 50.1612 35.5856 50.3512 36.0923 50.5539V49.9839C36.0923 48.9959 35.6996 48.1852 34.9143 47.5519C34.1289 46.8932 33.1536 46.5639 31.9883 46.5639C30.2656 46.5639 28.8089 47.2859 27.6183 48.7299L24.0083 46.2599C25.9843 43.7772 28.6823 42.5359 32.1023 42.5359C34.9903 42.5359 37.1943 43.2199 38.7143 44.5879C40.2343 45.9306 40.9943 47.9319 40.9943 50.5919V61.7639H36.0923V59.7879ZM36.0923 54.2019C35.5096 53.9232 34.9016 53.7079 34.2683 53.5559C33.6603 53.3786 32.9889 53.2899 32.2543 53.2899C31.0636 53.2899 30.1389 53.5559 29.4803 54.0879C28.8469 54.5946 28.5303 55.2279 28.5303 55.9879C28.5303 56.7479 28.8343 57.3559 29.4423 57.8119C30.0756 58.2679 30.7976 58.4959 31.6083 58.4959C32.2669 58.4959 32.8749 58.3819 33.4323 58.1539C33.9896 57.9006 34.4583 57.5839 34.8383 57.2039C35.2436 56.7986 35.5476 56.3426 35.7503 55.8359C35.9783 55.3039 36.0923 54.7592 36.0923 54.2019ZM44.9522 43.1439H49.6262V45.7279H49.9302C50.1582 45.2719 50.4622 44.8539 50.8422 44.4739C51.2222 44.0939 51.6402 43.7646 52.0962 43.4859C52.5776 43.2072 53.0842 42.9919 53.6162 42.8399C54.1736 42.6879 54.7182 42.6119 55.2502 42.6119C55.9089 42.6119 56.4662 42.6752 56.9222 42.8019C57.4036 42.9286 57.8089 43.0932 58.1382 43.2959L56.8082 47.8179C56.5042 47.6659 56.1622 47.5519 55.7822 47.4759C55.4276 47.3746 54.9842 47.3239 54.4522 47.3239C53.7682 47.3239 53.1476 47.4632 52.5902 47.7419C52.0329 47.9952 51.5516 48.3626 51.1462 48.8439C50.7662 49.3252 50.4622 49.8952 50.2342 50.5539C50.0316 51.1872 49.9302 51.8839 49.9302 52.6439V61.7639H44.9522V43.1439ZM71.1606 59.7879H70.8566C70.274 60.4972 69.5646 61.1052 68.7286 61.6119C67.918 62.1186 66.8666 62.3719 65.5746 62.3719C64.612 62.3719 63.7 62.2072 62.8386 61.8779C62.0026 61.5739 61.268 61.1432 60.6346 60.5859C60.0013 60.0286 59.5073 59.3572 59.1526 58.5719C58.798 57.7866 58.6206 56.9252 58.6206 55.9879C58.6206 55.0252 58.8106 54.1639 59.1906 53.4039C59.5706 52.6186 60.1026 51.9472 60.7866 51.3899C61.4706 50.8326 62.2686 50.4146 63.1806 50.1359C64.118 49.8319 65.1313 49.6799 66.2206 49.6799C67.4366 49.6799 68.4373 49.7812 69.2226 49.9839C70.008 50.1612 70.654 50.3512 71.1606 50.5539V49.9839C71.1606 48.9959 70.768 48.1852 69.9826 47.5519C69.1973 46.8932 68.222 46.5639 67.0566 46.5639C65.334 46.5639 63.8773 47.2859 62.6866 48.7299L59.0766 46.2599C61.0526 43.7772 63.7506 42.5359 67.1706 42.5359C70.0586 42.5359 72.2626 43.2199 73.7826 44.5879C75.3026 45.9306 76.0626 47.9319 76.0626 50.5919V61.7639H71.1606V59.7879ZM71.1606 54.2019C70.578 53.9232 69.97 53.7079 69.3366 53.5559C68.7286 53.3786 68.0573 53.2899 67.3226 53.2899C66.132 53.2899 65.2073 53.5559 64.5486 54.0879C63.9153 54.5946 63.5986 55.2279 63.5986 55.9879C63.5986 56.7479 63.9026 57.3559 64.5106 57.8119C65.144 58.2679 65.866 58.4959 66.6766 58.4959C67.3353 58.4959 67.9433 58.3819 68.5006 58.1539C69.058 57.9006 69.5266 57.5839 69.9066 57.2039C70.312 56.7986 70.616 56.3426 70.8186 55.8359C71.0466 55.3039 71.1606 54.7592 71.1606 54.2019ZM88.423 70.5799C87.1057 70.5799 85.9277 70.4026 84.889 70.0479C83.8757 69.7186 82.989 69.2752 82.229 68.7179C81.469 68.1859 80.8357 67.5906 80.329 66.9319C79.8224 66.2732 79.455 65.6146 79.227 64.9559L83.977 63.0559C84.3317 64.0439 84.9144 64.8039 85.725 65.3359C86.5357 65.8932 87.435 66.1719 88.423 66.1719C89.9937 66.1719 91.235 65.6779 92.147 64.6899C93.059 63.7272 93.515 62.3719 93.515 60.6239V59.3319H93.211C92.6284 60.1426 91.8557 60.7886 90.893 61.2699C89.9557 61.7259 88.841 61.9539 87.549 61.9539C86.4344 61.9539 85.345 61.7259 84.281 61.2699C83.2424 60.8139 82.3177 60.1679 81.507 59.3319C80.6964 58.4706 80.0377 57.4446 79.531 56.2539C79.0244 55.0632 78.771 53.7332 78.771 52.2639C78.771 50.7946 79.0244 49.4646 79.531 48.2739C80.0377 47.0579 80.6964 46.0319 81.507 45.1959C82.3177 44.3346 83.2424 43.6759 84.281 43.2199C85.345 42.7639 86.4344 42.5359 87.549 42.5359C88.841 42.5359 89.9557 42.7766 90.893 43.2579C91.8557 43.7139 92.6284 44.3472 93.211 45.1579H93.515V43.1439H98.265V60.4339C98.265 62.0046 98.0244 63.4106 97.543 64.6519C97.0617 65.9186 96.3904 66.9826 95.529 67.8439C94.6677 68.7306 93.629 69.4019 92.413 69.8579C91.2224 70.3392 89.8924 70.5799 88.423 70.5799ZM88.613 57.4699C89.221 57.4699 89.8164 57.3559 90.399 57.1279C91.007 56.8999 91.539 56.5706 91.995 56.1399C92.451 55.6839 92.8184 55.1392 93.097 54.5059C93.3757 53.8472 93.515 53.0999 93.515 52.2639C93.515 51.4279 93.3757 50.6806 93.097 50.0219C92.8184 49.3632 92.451 48.8186 91.995 48.3879C91.539 47.9319 91.007 47.5899 90.399 47.3619C89.8164 47.1339 89.221 47.0199 88.613 47.0199C88.005 47.0199 87.4097 47.1339 86.827 47.3619C86.2444 47.5899 85.725 47.9319 85.269 48.3879C84.813 48.8439 84.4457 49.4012 84.167 50.0599C83.8884 50.6932 83.749 51.4279 83.749 52.2639C83.749 53.0999 83.8884 53.8472 84.167 54.5059C84.4457 55.1392 84.813 55.6839 85.269 56.1399C85.725 56.5706 86.2444 56.8999 86.827 57.1279C87.4097 57.3559 88.005 57.4699 88.613 57.4699ZM119.955 57.2799C119.094 58.7999 117.929 60.0286 116.459 60.9659C115.015 61.9032 113.242 62.3719 111.139 62.3719C109.721 62.3719 108.403 62.1312 107.187 61.6499C105.997 61.1432 104.958 60.4466 104.071 59.5599C103.185 58.6732 102.488 57.6346 101.981 56.4439C101.5 55.2279 101.259 53.8979 101.259 52.4539C101.259 51.1112 101.5 49.8446 101.981 48.6539C102.463 47.4379 103.134 46.3866 103.995 45.4999C104.857 44.5879 105.87 43.8659 107.035 43.3339C108.226 42.8019 109.531 42.5359 110.949 42.5359C112.444 42.5359 113.774 42.7892 114.939 43.2959C116.105 43.7772 117.08 44.4612 117.865 45.3479C118.651 46.2092 119.246 47.2352 119.651 48.4259C120.057 49.6166 120.259 50.9086 120.259 52.3019C120.259 52.4792 120.259 52.6312 120.259 52.7579C120.234 52.9099 120.221 53.0492 120.221 53.1759C120.196 53.3026 120.183 53.4419 120.183 53.5939H106.161C106.263 54.3539 106.465 55.0126 106.769 55.5699C107.099 56.1019 107.491 56.5579 107.947 56.9379C108.429 57.2926 108.948 57.5586 109.505 57.7359C110.063 57.8879 110.633 57.9639 111.215 57.9639C112.355 57.9639 113.293 57.7106 114.027 57.2039C114.787 56.6719 115.383 56.0132 115.813 55.2279L119.955 57.2799ZM115.433 50.0599C115.408 49.7306 115.294 49.3632 115.091 48.9579C114.914 48.5526 114.635 48.1726 114.255 47.8179C113.901 47.4632 113.445 47.1719 112.887 46.9439C112.355 46.7159 111.709 46.6019 110.949 46.6019C109.885 46.6019 108.948 46.9059 108.137 47.5139C107.327 48.1219 106.757 48.9706 106.427 50.0599H115.433Z" fill="#599EE4"/>
<g clip-path="url(#clip0)">
<path d="M116.6 1.46641C115.977 1.62329 115.482 2.09488 115.294 2.70996C115.105 3.32235 115.25 3.99133 115.675 4.47104L122.966 12.6804L120.917 18.5132L114.883 19.8601L107.591 11.6502C107.165 11.1687 106.518 10.9483 105.887 11.0634C105.254 11.1784 104.73 11.6136 104.498 12.214C103.914 13.7507 103.563 15.4019 103.461 17.1267C102.902 26.571 110.13 34.7083 119.574 35.267C121.573 35.3853 123.523 35.164 125.388 34.6089L147.321 59.3004C148.626 60.7722 150.423 61.6446 152.38 61.7604C154.338 61.8762 156.225 61.2218 157.695 59.9142C159.167 58.6089 160.039 56.8119 160.155 54.8546C160.271 52.8973 159.616 51.0099 158.309 49.5402L136.376 24.8488C137.147 23.0628 137.596 21.1523 137.715 19.1533C138.273 9.7094 131.045 1.57207 121.601 1.0133C119.876 0.911255 118.195 1.0649 116.6 1.46641Z" fill="#599EE4"/>
</g>
<defs>
<clipPath id="clip0">
<rect width="58.8231" height="58.8231" fill="white" transform="translate(101 58.7205) rotate(-86.6141)"/>
</clipPath>
</defs>
</svg>
